<svg width="172" height="55" viewBox="0 0 172 55" fill="none" xmlns="http://www.w3.org/2000/svg">
<path d="M24.3533 43.3476L39.9675 55L149.384 31.5786L24.3533 43.3476Z" fill="white"/>
<path d="M22.3732 6.99249H24.5871C25.5193 6.99249 26.2185 7.22553 26.6846 7.69163C27.1507 8.15773 27.3837 8.85688 27.3837 9.67255C27.3837 10.3717 27.1507 12.4691 24.5871 12.4691H22.3732V6.99249ZM25.2863 3.61328H19.227H18.8774V23.3059H22.4897V15.7318H25.0532C28.6655 15.7318 31.1125 13.1683 31.1125 9.55602C31.1125 7.80816 30.5299 6.29334 29.4812 5.1281C28.3159 4.1959 26.9176 3.61328 25.2863 3.61328Z" fill="white"/>
<path d="M72.5957 9.67255C72.5957 6.64291 70.8478 3.61328 66.7695 3.61328H59.0789V3.96285V23.3059H62.6911V6.99249H66.1868C67.0025 6.99249 67.8182 7.22554 68.2843 7.80816C68.7504 8.27425 68.9834 8.9734 68.9834 9.67255C68.9834 10.6047 68.7504 11.1874 68.1678 11.6535C67.5851 12.2361 66.7695 12.4691 65.6042 12.4691H62.8076L70.0321 23.4224H74.1105C74.1105 23.4224 69.333 16.0814 68.8669 15.3822C71.0809 14.5666 72.5957 12.3526 72.5957 9.67255Z" fill="white"/>
<path d="M171.058 23.3059C171.058 23.3059 163.484 13.1683 163.251 12.8187C163.6 12.4691 170.825 3.61328 170.825 3.61328H170.125H166.397L158.939 12.7022V3.61328H158.473H155.327V23.3059H158.939V12.8187L166.513 23.3059H171.058Z" fill="white"/>
<path d="M40.0857 8.62501C41.2509 7.34324 42.8823 6.6441 44.6301 6.6441C46.378 6.6441 48.0093 7.34324 49.1746 8.62501C50.3398 9.90678 51.039 11.6546 51.039 13.519C51.039 17.2478 48.1258 20.2774 44.6301 20.2774C42.8823 20.2774 41.3674 19.5783 40.0857 18.2965C38.8039 17.0148 38.1048 15.2669 38.1048 13.4025C38.2213 11.6546 38.9204 9.90678 40.0857 8.62501ZM44.6301 3.26489C39.0369 3.26489 34.376 7.80934 34.376 13.4025C34.376 16.0826 35.4247 18.6461 37.2891 20.5105C39.27 22.4914 41.8335 23.5401 44.5136 23.5401C47.3102 23.5401 49.8737 22.4914 51.7381 20.5105C53.6025 18.6461 54.6512 16.0826 54.6512 13.4025C54.6512 10.7224 53.6025 8.15891 51.6216 6.178C49.9902 4.43014 47.4267 3.26489 44.6301 3.26489Z" fill="white"/>
<path d="M76.5569 3.61328V6.99249H80.9848V23.3059H84.4805V6.99249H88.9085V3.61328H88.5589H76.5569Z" fill="white"/>
<path d="M128.876 3.61328V10.9543H121.069V3.61328H117.573V23.3059H121.069V14.45H128.876V23.3059H132.488V3.61328H132.139H128.876Z" fill="white"/>
<path d="M138.548 3.61328V23.3059H149.501V19.9267H142.16V14.3335H149.268V10.8378H142.16V6.99249H149.501V3.61328H149.151H138.548Z" fill="white"/>
<path d="M105.222 0.000854492C98.347 0.000854492 93.3364 4.89488 93.3364 11.7698C93.3364 14.916 94.6182 17.9456 96.7156 20.043C98.9296 22.257 101.959 23.5388 105.105 23.5388C107.436 23.5388 109.883 22.7231 111.864 21.3248L111.98 21.2083L112.097 21.0918V16.4308L111.048 17.363C109.417 18.9943 107.086 20.043 104.989 20.043C103.241 20.043 101.027 19.1108 99.7453 17.7126C98.1139 16.0812 97.1817 13.8672 97.1817 11.7698C97.1817 9.20628 98.1139 6.99231 99.6287 5.4775C101.027 4.07921 103.008 3.26354 104.872 3.26354C107.086 3.26354 109.3 4.31225 111.048 6.06012L112.097 7.10884V2.44787L111.864 2.33134C109.999 0.7 107.785 0.000854492 105.222 0.000854492Z" fill="white"/>
<path d="M7.92365 9.55499L6.52536 8.97237C4.89402 8.1567 3.61225 7.45756 3.72878 6.05926C3.72878 5.36012 3.96183 4.7775 4.54445 4.3114C5.01055 3.72878 5.70969 3.49573 6.64189 3.37921C9.0889 3.26268 11.3029 4.42792 11.769 5.12707L12.3516 6.05926V1.63134L12.2351 1.51482C10.8368 0.466097 8.97237 0 6.64189 0C2.91311 0.116524 0 2.56353 0 6.05926C0 9.67152 2.79658 11.5359 4.89402 12.4681C5.01055 12.4681 5.12707 12.5846 6.29231 13.1672L6.52536 13.2838C8.27323 14.0994 9.55499 14.6821 9.55499 16.663V16.7795C9.55499 18.7604 8.04018 20.1587 5.82622 20.2752C3.8453 20.3918 1.28177 19.343 0.699146 18.5274L0.116524 17.5952V22.0231L0.349573 22.1396C0.81567 22.4892 2.44701 23.6544 5.94274 23.6544C7.92365 23.6544 9.78804 22.9553 11.3029 21.557C12.7011 20.2752 13.4003 18.4108 13.5168 16.4299C13.5168 12.5846 10.8368 10.8368 7.92365 9.55499Z" fill="white"/>
</svg>
