<svg width="46" height="56" viewBox="0 0 46 56" fill="none" xmlns="http://www.w3.org/2000/svg">
<g clip-path="url(#clip0_670:1548)">
<path d="M0 16.7488C0 7.49871 7.4987 0 16.7488 0H76.7654V55.8294H16.7488C7.4987 55.8294 0 48.3307 0 39.0806V16.7488Z" fill="#E72020"/>
<path d="M30.9924 27.7202C31.3849 27.3276 31.3849 26.6734 30.9924 26.2808L22.5307 17.7756C22.0946 17.383 21.4403 17.383 21.0478 17.7756L20.0446 18.7787C19.652 19.1713 19.652 19.8255 20.0446 20.2617L26.7616 26.9787L20.0446 33.7393C19.652 34.1754 19.652 34.8297 20.0446 35.2222L21.0478 36.2254C21.4403 36.618 22.0946 36.618 22.5307 36.2254L30.9924 27.7202Z" fill="white"/>
</g>
<defs>
<clipPath id="clip0_670:1548">
<rect width="47.455" height="55.8294" fill="white"/>
</clipPath>
</defs>
</svg>
