<svg width="20" height="16" viewBox="0 0 20 16" fill="none" xmlns="http://www.w3.org/2000/svg">
<path fill-rule="evenodd" clip-rule="evenodd" d="M19.3273 7.21914C19.7585 7.56415 19.8285 8.19344 19.4834 8.62471C19.1384 9.05597 18.5091 9.12589 18.0779 8.78088L16.2212 7.29551V14.962C16.2212 15.5143 15.7735 15.962 15.2212 15.962H4.7781C4.22582 15.962 3.7781 15.5143 3.7781 14.962V7.29612L1.92216 8.78088C1.49089 9.12589 0.861603 9.05597 0.516592 8.62471C0.171583 8.19345 0.241504 7.56415 0.672765 7.21914L9.37532 0.257095C9.74054 -0.0350798 10.2595 -0.0350798 10.6247 0.257095L19.3273 7.21914ZM5.7781 5.69612V13.962H14.2212V5.69551L10 2.31859L5.7781 5.69612Z" fill="white"/>
</svg>
